<mxfile host="app.diagrams.net" modified="2024-06-20T14:22:13.364Z" agent="Mozilla/5.0 (Windows NT 10.0; Win64; x64) AppleWebKit/537.36 (KHTML, like Gecko) Chrome/126.0.0.0 Safari/537.36" etag="aRKkw5nLKJE2xp2UH19J" version="24.5.5" type="device">
  <diagram name="Page-1" id="C5uqOaJG-PZIgKtllAtZ">
    <mxGraphModel dx="954" dy="592" grid="1" gridSize="10" guides="1" tooltips="1" connect="1" arrows="1" fold="1" page="1" pageScale="1" pageWidth="827" pageHeight="1169" math="0" shadow="0">
      <root>
        <mxCell id="0" />
        <mxCell id="1" parent="0" />
        <mxCell id="buX2N8W3loXDFvweGDrx-1" value="read- Accepts a space separated list of input params[options : -p same line, -sp hiddenpass, -a read arguments variable]&lt;div&gt;&lt;br&gt;&lt;/div&gt;" style="whiteSpace=wrap;html=1;aspect=fixed;align=left;" vertex="1" parent="1">
          <mxGeometry x="200" y="90" width="480" height="480" as="geometry" />
        </mxCell>
      </root>
    </mxGraphModel>
  </diagram>
</mxfile>
